<svg width="333" height="498" viewBox="0 0 333 498" fill="none" xmlns="http://www.w3.org/2000/svg">
<path d="M2 160.211C21.0638 77.1472 47.2472 56.4251 130 66.2533C84.156 139.348 55.5603 108.936 2 160.211Z" fill="black" stroke="black" stroke-width="1.8156"/>
<path d="M73.2231 233.691L74.0632 232.644L73.988 231.304C69.5454 152.211 102.642 113.732 131.476 105.361L133.47 104.782L133.918 102.754C134.07 102.063 134.22 101.383 134.367 100.714C135.804 94.1876 137.011 88.6995 138.352 84.0376C139.83 78.8982 141.392 75.0592 143.384 72.1783C145.315 69.3867 147.705 67.4148 151.055 66.0912C154.499 64.7308 159.101 64 165.5 64H169V60.5V18.5V14.8814L165.383 15.0019L108.993 16.8814V4.5H219.629C220.95 4.77252 222.95 5.09044 225.183 5.4454C225.662 5.52149 226.151 5.59929 226.647 5.6787C228.208 5.92888 229.879 6.20185 231.578 6.5H193.493H189.993V10V15H175.5H171.918L172.001 18.5814L173.001 61.5814L173.082 65.0687L176.57 64.9993C187.683 64.7782 194.758 68.354 198.968 74.2546C203.317 80.3504 205.109 89.6095 204.014 101.684L203.745 104.655L206.635 105.392C230.165 111.389 273.993 148.121 273.993 237V238.287L274.827 239.268C307.277 277.415 323.395 312.383 327.778 343.242C332.152 374.046 324.872 401 310.076 423.316C280.374 468.112 220.119 494.5 162.493 494.5C106.782 494.5 54.1415 467.01 30.5438 421.088C7.06412 375.396 11.773 310.256 73.2231 233.691Z" stroke="black" stroke-width="7"/>
<path d="M176.5 300H164.5V106.5H130.5C130.5 77 135 60.5 164.5 60.5V19.5H107V1H242.5C259.443 2.14 258.94 5.92362 257 13C250 9.50024 219.212 12.7469 195 13V19.5H176.5V60.5C205.5 63 205.5 76.5 205.5 106.5H176.5V300Z" fill="black" stroke="black" stroke-width="1.8156"/>
<path d="M125.963 247.5C103.086 259.232 100.962 283 125.963 283C150.964 283 150.54 261.864 125.963 247.5Z" fill="#33CC66"/>
<path d="M222.463 289C197.391 302.533 203.964 319 222.463 319C240.963 319 247.743 300.123 222.463 289Z" fill="#33CC66"/>
<path d="M202.963 217C188.35 227.788 193.464 233.5 202.963 233.5C212.463 233.5 215.85 227.462 202.963 217Z" fill="#33CC66"/>
<path d="M300.5 320C205.5 360 143 294 58.4354 294C-25.9998 408.5 90.5007 479 169.935 479C249.37 479 352 414 300.5 320Z" fill="#33CC66"/>
<path d="M143 99.5H135C135.023 85.271 137.379 80.0252 145.5 76C143.669 81.0654 143.214 86.6572 143 99.5Z" fill="url(#paint0_linear_162_49)"/>
<path d="M172.299 348.5C154.522 348.5 141.544 354.57 133.193 363.947C124.879 373.283 121.372 385.65 122.026 397.884C123.331 422.277 141.331 447 172.299 447C203.266 447 221.267 422.277 222.571 397.883C223.225 385.65 219.718 373.282 211.404 363.947C203.053 354.57 190.075 348.5 172.299 348.5Z" fill="black" stroke="white" stroke-width="5"/>
<defs>
<linearGradient id="paint0_linear_162_49" x1="152.501" y1="86.5" x2="129.001" y2="86" gradientUnits="userSpaceOnUse">
<stop offset="0.395833" stop-color="white"/>
<stop offset="1" stop-color="#306231"/>
</linearGradient>
</defs>
</svg>
