<svg width="302" height="205" viewBox="0 0 302 205" fill="none" xmlns="http://www.w3.org/2000/svg">
<path d="M107.612 42.7982C112.616 20.9914 119.49 15.5511 141.216 18.1314C129.18 37.321 121.673 29.337 107.612 42.7982Z" fill="white" stroke="white" stroke-width="0.476655"/>
<path d="M126.31 62.0889L126.53 61.814L126.511 61.4622C125.344 40.6978 134.033 30.5959 141.603 28.3982L142.127 28.2462L142.244 27.7137C142.284 27.5323 142.324 27.3537 142.362 27.1781C142.739 25.4648 143.056 24.024 143.408 22.8001C143.796 21.4508 144.206 20.4429 144.729 19.6866C145.236 18.9537 145.864 18.436 146.743 18.0885C147.648 17.7314 148.856 17.5395 150.536 17.5395H151.454V16.6207V5.59432V4.64432L150.505 4.67596L135.701 5.16938V1.91886H164.746C165.093 1.99041 165.618 2.07388 166.204 2.16707C166.33 2.18705 166.458 2.20747 166.589 2.22831C166.999 2.29399 167.437 2.36565 167.883 2.44393H157.885H156.966V3.36279V4.67545H153.161H152.22L152.242 5.61568L152.505 16.9046L152.526 17.8201L153.442 17.8019C156.359 17.7438 158.217 18.6826 159.322 20.2317C160.464 21.8321 160.934 24.2629 160.647 27.4328L160.576 28.2127L161.335 28.4062C167.512 29.9807 179.019 39.624 179.019 62.9576V63.2956L179.238 63.553C187.757 73.5678 191.988 82.748 193.139 90.8496C194.287 98.9367 192.376 106.013 188.491 111.872C180.694 123.632 164.875 130.56 149.746 130.56C135.12 130.56 121.3 123.343 115.105 111.287C108.941 99.291 110.177 82.1896 126.31 62.0889Z" stroke="white" stroke-width="1.83773"/>
<path d="M153.423 79.4972H150.273V28.6972H141.347C141.347 20.9525 142.528 16.6207 150.273 16.6207V5.85685H135.177V1H170.751C175.199 1.29929 175.067 2.29261 174.557 4.15039C172.72 3.23159 164.637 4.08395 158.28 4.15039V5.85685H153.423V16.6207C161.037 17.277 161.037 20.8212 161.037 28.6972H153.423V79.4972Z" fill="white" stroke="white" stroke-width="0.476655"/>
<path d="M140.156 65.7145C134.15 68.7945 133.592 75.0344 140.156 75.0344C146.72 75.0344 146.608 69.4856 140.156 65.7145Z" fill="#33CC66"/>
<path d="M165.49 76.6096C158.908 80.1625 160.634 84.4856 165.49 84.4856C170.347 84.4856 172.127 79.5299 165.49 76.6096Z" fill="#33CC66"/>
<path d="M160.371 57.7073C156.535 60.5395 157.877 62.0391 160.371 62.0391C162.865 62.0391 163.754 60.4539 160.371 57.7073Z" fill="#33CC66"/>
<path d="M185.977 84.7481C161.037 95.2494 144.629 77.9222 122.428 77.9222C100.261 107.982 130.846 126.491 151.7 126.491C172.554 126.491 199.498 109.426 185.977 84.7481Z" fill="#33CC66"/>
<path d="M144.629 26.8591H142.528C142.534 23.1236 143.153 21.7464 145.285 20.6896C144.804 22.0195 144.685 23.4875 144.629 26.8591Z" fill="url(#paint0_linear_161_35)"/>
<path d="M152.32 92.2298C147.654 92.2298 144.246 93.8234 142.054 96.2851C139.871 98.7361 138.951 101.983 139.122 105.195C139.465 111.599 144.19 118.089 152.32 118.089C160.451 118.089 165.176 111.599 165.519 105.195C165.69 101.983 164.77 98.736 162.587 96.285C160.395 93.8233 156.987 92.2297 152.32 92.2298Z" fill="white" stroke="white" stroke-width="1.31266"/>
<path d="M13.4874 179.06C12.5541 179.06 11.5808 179.033 10.5674 178.98C9.58075 178.953 8.70075 178.94 7.92742 178.94C7.50075 178.94 6.90075 178.953 6.12742 178.98C5.35409 178.98 4.56742 178.98 3.76742 178.98C2.96742 179.006 2.30075 179.02 1.76742 179.02C1.71408 178.62 1.71408 178.193 1.76742 177.74C3.02075 177.606 3.91409 177.486 4.44742 177.38C4.98075 177.246 5.31409 176.98 5.44742 176.58C5.58075 176.153 5.64742 175.473 5.64742 174.54V155.94C5.64742 154.82 5.58075 154.02 5.44742 153.54C5.31409 153.06 4.96742 152.753 4.40742 152.62C3.87409 152.46 2.99408 152.326 1.76742 152.22C1.71408 151.82 1.71408 151.393 1.76742 150.94C2.32742 150.94 2.99408 150.953 3.76742 150.98C4.54075 150.98 5.30075 150.993 6.04742 151.02C6.82075 151.02 7.46075 151.02 7.96742 151.02C8.79409 151.02 9.74075 151.006 10.8074 150.98C11.9008 150.953 12.7674 150.94 13.4074 150.94C16.6608 150.94 19.0741 151.473 20.6474 152.54C22.2208 153.606 23.0074 155.153 23.0074 157.18C23.0074 160.566 20.9141 162.86 16.7274 164.06V164.1C18.1674 164.206 19.4741 164.54 20.6474 165.1C21.8474 165.66 22.8074 166.446 23.5274 167.46C24.2474 168.473 24.6074 169.726 24.6074 171.22C24.6074 173.113 24.0341 174.7 22.8874 175.98C21.7408 177.233 20.3141 178.086 18.6074 178.54C17.8608 178.726 17.0608 178.86 16.2074 178.94C15.3541 179.02 14.4474 179.06 13.4874 179.06ZM12.4074 165.34C12.0874 165.34 11.7141 165.353 11.2874 165.38C10.8874 165.38 10.4741 165.406 10.0474 165.46V174.34C10.0474 175.006 10.0474 175.566 10.0474 176.02C10.0474 176.473 10.0608 176.846 10.0874 177.14C11.2608 177.38 12.3141 177.5 13.2474 177.5C15.3008 177.5 16.8874 176.993 18.0074 175.98C19.1541 174.94 19.7274 173.366 19.7274 171.26C19.7274 169.206 19.1408 167.713 17.9674 166.78C16.7941 165.82 14.9408 165.34 12.4074 165.34ZM10.0474 163.7C10.2608 163.726 10.4474 163.74 10.6074 163.74C10.7941 163.74 10.9674 163.74 11.1274 163.74C13.6874 163.74 15.5008 163.286 16.5674 162.38C17.6608 161.446 18.2074 160.046 18.2074 158.18C18.2074 154.446 16.2741 152.58 12.4074 152.58C12.0074 152.58 11.6208 152.606 11.2474 152.66C10.9008 152.686 10.5008 152.726 10.0474 152.78V163.7ZM33.1162 161.31V175.26C33.1162 175.88 33.1362 176.37 33.1762 176.73C33.2162 177.09 33.3262 177.35 33.5062 177.51C33.6862 177.67 33.9762 177.79 34.3762 177.87C34.7762 177.93 35.3462 177.99 36.0862 178.05C36.1462 178.37 36.1462 178.69 36.0862 179.01C35.6862 179.01 35.1962 179 34.6162 178.98C34.0362 178.98 33.4562 178.98 32.8762 178.98C32.3162 178.96 31.8462 178.95 31.4662 178.95C31.0862 178.95 30.6062 178.96 30.0262 178.98C29.4662 178.98 28.8962 178.98 28.3162 178.98C27.7562 179 27.2562 179.01 26.8162 179.01C26.7562 178.71 26.7562 178.39 26.8162 178.05C27.7762 177.95 28.4662 177.86 28.8862 177.78C29.3062 177.68 29.5662 177.48 29.6662 177.18C29.7662 176.88 29.8162 176.37 29.8162 175.65V161.7C29.8162 160.86 29.7662 160.26 29.6662 159.9C29.5662 159.54 29.3062 159.31 28.8862 159.21C28.4662 159.09 27.7762 158.99 26.8162 158.91C26.7762 158.61 26.7762 158.29 26.8162 157.95C27.2362 157.95 27.7362 157.96 28.3162 157.98C28.9162 157.98 29.5062 157.99 30.0862 158.01C30.6662 158.01 31.1462 158.01 31.5262 158.01C31.9062 158.01 32.3762 158.01 32.9362 158.01C33.4962 157.99 34.0662 157.98 34.6462 157.98C35.2262 157.96 35.7062 157.95 36.0862 157.95C36.1462 158.25 36.1462 158.57 36.0862 158.91C35.1462 158.99 34.4662 159.08 34.0462 159.18C33.6262 159.28 33.3662 159.48 33.2662 159.78C33.1662 160.08 33.1162 160.59 33.1162 161.31ZM59.5797 168.36C59.5797 170.52 59.1397 172.43 58.2597 174.09C57.3797 175.75 56.1397 177.06 54.5397 178.02C52.9397 178.96 51.0497 179.43 48.8697 179.43C46.7097 179.43 44.8597 178.97 43.3197 178.05C41.7797 177.13 40.5897 175.86 39.7497 174.24C38.9297 172.62 38.5197 170.78 38.5197 168.72C38.5197 166.58 38.9597 164.68 39.8397 163.02C40.7197 161.34 41.9597 160.03 43.5597 159.09C45.1797 158.13 47.0697 157.65 49.2297 157.65C51.3697 157.65 53.2097 158.11 54.7497 159.03C56.2897 159.95 57.4797 161.22 58.3197 162.84C59.1597 164.44 59.5797 166.28 59.5797 168.36ZM55.8597 168.66C55.8597 167.44 55.7397 166.25 55.4997 165.09C55.2597 163.93 54.8697 162.88 54.3297 161.94C53.8097 161 53.1197 160.26 52.2597 159.72C51.3997 159.16 50.3497 158.88 49.1097 158.88C47.8497 158.88 46.7797 159.16 45.8997 159.72C45.0397 160.28 44.3397 161.02 43.7997 161.94C43.2797 162.86 42.8897 163.89 42.6297 165.03C42.3897 166.17 42.2697 167.33 42.2697 168.51C42.2697 169.67 42.3897 170.83 42.6297 171.99C42.8897 173.13 43.2897 174.17 43.8297 175.11C44.3697 176.05 45.0797 176.81 45.9597 177.39C46.8597 177.95 47.9397 178.23 49.1997 178.23C50.4397 178.23 51.4797 177.96 52.3197 177.42C53.1797 176.88 53.8697 176.16 54.3897 175.26C54.9097 174.34 55.2797 173.31 55.4997 172.17C55.7397 171.03 55.8597 169.86 55.8597 168.66ZM86.4592 154.62C86.3192 155.623 86.1675 156.661 86.0042 157.735C85.8642 158.808 85.7359 159.94 85.6192 161.13C85.4092 161.153 85.1992 161.176 84.9892 161.2C84.8025 161.2 84.6042 161.2 84.3942 161.2C84.3709 160.196 84.2309 159.263 83.9742 158.4C83.7409 157.513 83.3209 156.801 82.7142 156.265C82.1075 155.705 81.2092 155.425 80.0192 155.425C78.5959 155.425 77.3825 155.845 76.3792 156.685C75.3992 157.501 74.9092 158.61 74.9092 160.01C74.9092 160.826 75.0842 161.515 75.4342 162.075C75.8075 162.635 76.3209 163.136 76.9742 163.58C77.6509 164 78.4325 164.455 79.3192 164.945C80.2292 165.435 81.1042 165.971 81.9442 166.555C82.7842 167.138 83.4725 167.861 84.0092 168.725C84.5459 169.565 84.8142 170.65 84.8142 171.98C84.8142 173.473 84.4409 174.78 83.6942 175.9C82.9475 177.02 81.9092 177.895 80.5792 178.525C79.2492 179.155 77.7092 179.47 75.9592 179.47C75.0259 179.47 74.1742 179.388 73.4042 179.225C72.6575 179.085 71.9225 178.945 71.1992 178.805C70.4759 178.665 69.6942 178.595 68.8542 178.595C68.6909 178.595 68.5275 178.595 68.3642 178.595C68.2242 178.595 68.0959 178.606 67.9792 178.63C68.2125 177.65 68.4342 176.588 68.6442 175.445C68.8775 174.278 69.1109 173.018 69.3442 171.665C69.6942 171.595 70.0792 171.583 70.4992 171.63C70.4759 171.793 70.4642 171.921 70.4642 172.015C70.4642 172.108 70.4642 172.178 70.4642 172.225C70.4642 174.091 70.9659 175.538 71.9692 176.565C72.9959 177.568 74.3609 178.07 76.0642 178.07C76.9509 178.07 77.8025 177.918 78.6192 177.615C79.4359 177.288 80.1009 176.786 80.6142 176.11C81.1275 175.41 81.3842 174.523 81.3842 173.45C81.3842 172.493 81.1742 171.7 80.7542 171.07C80.3575 170.44 79.7859 169.88 79.0392 169.39C78.3159 168.9 77.4642 168.386 76.4842 167.85C75.6209 167.36 74.7809 166.835 73.9642 166.275C73.1709 165.715 72.5175 165.038 72.0042 164.245C71.4909 163.428 71.2342 162.413 71.2342 161.2C71.2342 159.753 71.6192 158.505 72.3892 157.455C73.1592 156.381 74.2325 155.553 75.6092 154.97C76.9859 154.386 78.5609 154.095 80.3342 154.095C81.6175 154.095 82.6559 154.2 83.4492 154.41C84.2425 154.62 84.9192 154.725 85.4792 154.725C85.6192 154.725 85.7825 154.713 85.9692 154.69C86.1792 154.666 86.3425 154.643 86.4592 154.62ZM109.194 168.36C109.194 170.52 108.754 172.43 107.874 174.09C106.994 175.75 105.754 177.06 104.154 178.02C102.554 178.96 100.664 179.43 98.4839 179.43C96.3239 179.43 94.4739 178.97 92.9339 178.05C91.3939 177.13 90.2039 175.86 89.3639 174.24C88.5439 172.62 88.1339 170.78 88.1339 168.72C88.1339 166.58 88.5739 164.68 89.4539 163.02C90.3339 161.34 91.5739 160.03 93.1739 159.09C94.7939 158.13 96.6839 157.65 98.8439 157.65C100.984 157.65 102.824 158.11 104.364 159.03C105.904 159.95 107.094 161.22 107.934 162.84C108.774 164.44 109.194 166.28 109.194 168.36ZM105.474 168.66C105.474 167.44 105.354 166.25 105.114 165.09C104.874 163.93 104.484 162.88 103.944 161.94C103.424 161 102.734 160.26 101.874 159.72C101.014 159.16 99.9639 158.88 98.7239 158.88C97.4639 158.88 96.3939 159.16 95.5139 159.72C94.6539 160.28 93.9539 161.02 93.4139 161.94C92.8939 162.86 92.5039 163.89 92.2439 165.03C92.0039 166.17 91.8839 167.33 91.8839 168.51C91.8839 169.67 92.0039 170.83 92.2439 171.99C92.5039 173.13 92.9039 174.17 93.4439 175.11C93.9839 176.05 94.6939 176.81 95.5739 177.39C96.4739 177.95 97.5539 178.23 98.8139 178.23C100.054 178.23 101.094 177.96 101.934 177.42C102.794 176.88 103.484 176.16 104.004 175.26C104.524 174.34 104.894 173.31 105.114 172.17C105.354 171.03 105.474 169.86 105.474 168.66ZM108.676 179.01C108.636 178.69 108.636 178.37 108.676 178.05C109.236 177.99 109.686 177.92 110.026 177.84C110.366 177.76 110.656 177.62 110.896 177.42C111.136 177.2 111.366 176.88 111.586 176.46C111.806 176.02 112.066 175.41 112.366 174.63L118.846 158.01C119.066 157.93 119.326 157.87 119.626 157.83C119.946 157.79 120.216 157.77 120.436 157.77L126.886 174.9C127.166 175.62 127.396 176.19 127.576 176.61C127.756 177.01 127.956 177.3 128.176 177.48C128.396 177.66 128.676 177.79 129.016 177.87C129.356 177.93 129.826 177.99 130.426 178.05C130.466 178.37 130.466 178.69 130.426 179.01C129.726 179.01 129.006 179 128.266 178.98C127.526 178.96 126.786 178.95 126.046 178.95C125.286 178.95 124.516 178.96 123.736 178.98C122.976 179 122.216 179.01 121.456 179.01C121.396 178.71 121.396 178.39 121.456 178.05C122.436 177.95 123.116 177.86 123.496 177.78C123.876 177.68 124.066 177.44 124.066 177.06C124.066 176.9 124.036 176.72 123.976 176.52C123.916 176.32 123.836 176.07 123.736 175.77L122.026 171.15H115.276L113.776 175.29C113.636 175.67 113.526 175.99 113.446 176.25C113.386 176.49 113.356 176.71 113.356 176.91C113.356 177.35 113.556 177.63 113.956 177.75C114.376 177.85 115.056 177.95 115.996 178.05C116.036 178.39 116.036 178.71 115.996 179.01C115.316 179.01 114.646 179 113.986 178.98C113.326 178.96 112.656 178.95 111.976 178.95C111.416 178.95 110.876 178.96 110.356 178.98C109.836 179 109.276 179.01 108.676 179.01ZM115.726 169.89H121.576L118.636 161.91L115.726 169.89ZM139.747 169.68C139.387 169.68 138.987 169.66 138.547 169.62C138.107 169.58 137.607 169.5 137.047 169.38V175.26C137.047 175.88 137.067 176.37 137.107 176.73C137.147 177.07 137.267 177.33 137.467 177.51C137.687 177.69 137.987 177.81 138.367 177.87C138.767 177.93 139.397 177.99 140.257 178.05C140.297 178.37 140.297 178.69 140.257 179.01C139.817 179.01 139.287 179 138.667 178.98C138.067 178.98 137.467 178.98 136.867 178.98C136.287 178.96 135.797 178.95 135.397 178.95C135.017 178.95 134.537 178.96 133.957 178.98C133.397 178.98 132.827 178.98 132.247 178.98C131.687 179 131.187 179.01 130.747 179.01C130.707 178.71 130.707 178.39 130.747 178.05C131.707 177.95 132.397 177.86 132.817 177.78C133.237 177.68 133.497 177.48 133.597 177.18C133.697 176.88 133.747 176.37 133.747 175.65V161.7C133.747 160.86 133.697 160.26 133.597 159.9C133.497 159.54 133.237 159.31 132.817 159.21C132.397 159.09 131.707 158.99 130.747 158.91C130.707 158.61 130.707 158.29 130.747 157.95C131.147 157.95 131.647 157.96 132.247 157.98C132.867 157.98 133.467 157.99 134.047 158.01C134.627 158.01 135.047 158.01 135.307 158.01C135.687 158.01 136.157 158.01 136.717 158.01C137.297 157.99 137.867 157.97 138.427 157.95C138.987 157.93 139.427 157.92 139.747 157.92C141.007 157.92 142.177 158.1 143.257 158.46C144.337 158.8 145.207 159.37 145.867 160.17C146.527 160.97 146.857 162.07 146.857 163.47C146.857 164.81 146.547 165.94 145.927 166.86C145.307 167.78 144.457 168.48 143.377 168.96C142.317 169.44 141.107 169.68 139.747 169.68ZM137.047 168.18C137.307 168.24 137.597 168.3 137.917 168.36C138.237 168.42 138.577 168.45 138.937 168.45C140.257 168.45 141.297 168.01 142.057 167.13C142.817 166.23 143.197 165.06 143.197 163.62C143.197 162.22 142.817 161.12 142.057 160.32C141.297 159.52 140.157 159.12 138.637 159.12C138.437 159.12 138.187 159.13 137.887 159.15C137.607 159.17 137.327 159.2 137.047 159.24V168.18ZM166.634 179.4C163.965 179.4 161.846 178.672 160.278 177.216C158.729 175.76 157.954 173.65 157.954 170.888C157.954 169.32 158.215 167.826 158.738 166.408C159.261 164.989 160.026 163.729 161.034 162.628C162.042 161.526 163.265 160.658 164.702 160.024C166.158 159.389 167.819 159.072 169.686 159.072C170.713 159.072 171.59 159.146 172.318 159.296C173.046 159.445 173.69 159.604 174.25 159.772C174.829 159.921 175.379 159.996 175.902 159.996C176.182 159.996 176.434 159.968 176.658 159.912C176.546 160.714 176.443 161.545 176.35 162.404C176.257 163.262 176.154 164.168 176.042 165.12C175.762 165.176 175.529 165.204 175.342 165.204C175.267 165.204 175.211 165.204 175.174 165.204C175.137 165.185 175.09 165.176 175.034 165.176C174.586 161.872 172.813 160.22 169.714 160.22C168.239 160.22 166.97 160.556 165.906 161.228C164.842 161.881 163.965 162.758 163.274 163.86C162.602 164.942 162.107 166.146 161.79 167.472C161.473 168.797 161.314 170.132 161.314 171.476C161.314 173.604 161.743 175.256 162.602 176.432C163.461 177.608 164.879 178.196 166.858 178.196C168.165 178.196 169.434 177.934 170.666 177.412L171.31 174.08C171.366 173.762 171.413 173.482 171.45 173.24C171.506 172.997 171.534 172.773 171.534 172.568C171.534 172.138 171.357 171.858 171.002 171.728C170.666 171.597 169.975 171.494 168.93 171.42C168.967 171.14 169.033 170.85 169.126 170.552C169.537 170.552 170.041 170.561 170.638 170.58C171.254 170.58 171.861 170.589 172.458 170.608C173.055 170.608 173.522 170.608 173.858 170.608C174.381 170.608 174.987 170.598 175.678 170.58C176.369 170.561 176.947 170.552 177.414 170.552C177.414 170.682 177.405 170.822 177.386 170.972C177.367 171.102 177.321 171.242 177.246 171.392C176.667 171.448 176.201 171.513 175.846 171.588C175.51 171.644 175.249 171.765 175.062 171.952C174.875 172.138 174.726 172.437 174.614 172.848C174.502 173.258 174.371 173.837 174.222 174.584C174.091 175.33 173.97 175.974 173.858 176.516C173.746 177.057 173.671 177.589 173.634 178.112C172.514 178.466 171.347 178.765 170.134 179.008C168.939 179.269 167.773 179.4 166.634 179.4ZM181.909 178.98H179.109L181.405 169.04C181.535 168.498 181.601 168.144 181.601 167.976C181.601 167.528 181.433 167.304 181.097 167.304C180.835 167.304 180.49 167.453 180.061 167.752C179.65 168.032 179.239 168.386 178.829 168.816C178.698 168.722 178.577 168.629 178.465 168.536C178.371 168.442 178.278 168.34 178.185 168.228C178.931 167.35 179.706 166.697 180.509 166.268C181.311 165.82 182.058 165.596 182.749 165.596C183.365 165.596 183.775 165.745 183.981 166.044C184.186 166.324 184.289 166.66 184.289 167.052C184.289 167.294 184.251 167.584 184.177 167.92C184.102 168.237 183.953 168.778 183.729 169.544L182.833 172.428L183.001 172.456C183.971 170.122 184.923 168.386 185.857 167.248C186.79 166.109 187.798 165.54 188.881 165.54C189.534 165.54 189.991 165.708 190.253 166.044C190.533 166.38 190.673 166.744 190.673 167.136C190.673 167.602 190.523 167.966 190.225 168.228C189.926 168.489 189.571 168.62 189.161 168.62C188.862 168.62 188.545 168.545 188.209 168.396C187.873 168.228 187.593 167.966 187.369 167.612C186.79 167.985 186.165 168.666 185.493 169.656C184.821 170.626 184.167 171.896 183.533 173.464C182.917 175.013 182.375 176.852 181.909 178.98ZM193.203 179.288C192.624 179.288 192.074 179.138 191.551 178.84C191.028 178.522 190.608 178.037 190.291 177.384C189.974 176.73 189.815 175.89 189.815 174.864C189.815 173.594 190.058 172.4 190.543 171.28C191.028 170.16 191.663 169.17 192.447 168.312C193.231 167.453 194.09 166.781 195.023 166.296C195.975 165.792 196.908 165.54 197.823 165.54C198.178 165.54 198.579 165.596 199.027 165.708C199.475 165.801 199.942 165.969 200.427 166.212C200.819 166.156 201.22 166.1 201.631 166.044C202.06 165.988 202.499 165.922 202.947 165.848L203.031 165.96C202.807 166.744 202.611 167.49 202.443 168.2C202.275 168.89 202.107 169.6 201.939 170.328L200.651 175.872C200.632 176.002 200.595 176.17 200.539 176.376C200.483 176.581 200.455 176.777 200.455 176.964C200.455 177.132 200.492 177.272 200.567 177.384C200.642 177.496 200.772 177.552 200.959 177.552C201.276 177.552 201.678 177.384 202.163 177.048C202.648 176.712 203.087 176.301 203.479 175.816C203.722 175.984 203.936 176.17 204.123 176.376C203.488 177.216 202.807 177.916 202.079 178.476C201.351 179.036 200.53 179.316 199.615 179.316C198.924 179.316 198.43 179.148 198.131 178.812C197.832 178.457 197.683 178.018 197.683 177.496C197.683 176.992 197.786 176.413 197.991 175.76H197.851C197.16 176.954 196.414 177.841 195.611 178.42C194.827 178.998 194.024 179.288 193.203 179.288ZM199.699 167.976C199.307 167.621 198.896 167.341 198.467 167.136C198.038 166.912 197.599 166.8 197.151 166.8C196.46 166.8 195.844 167.052 195.303 167.556C194.762 168.06 194.304 168.713 193.931 169.516C193.558 170.3 193.278 171.149 193.091 172.064C192.904 172.96 192.811 173.818 192.811 174.64C192.811 175.76 192.96 176.525 193.259 176.936C193.558 177.328 193.912 177.524 194.323 177.524C194.808 177.524 195.34 177.29 195.919 176.824C196.516 176.338 197.095 175.573 197.655 174.528C198.234 173.464 198.728 172.064 199.139 170.328L199.699 167.976ZM209.885 173.884L208.709 178.98H205.909L208.205 169.04C208.336 168.498 208.401 168.144 208.401 167.976C208.401 167.528 208.233 167.304 207.897 167.304C207.636 167.304 207.29 167.453 206.861 167.752C206.45 168.032 206.04 168.386 205.629 168.816C205.498 168.722 205.377 168.629 205.265 168.536C205.172 168.442 205.078 168.34 204.985 168.228C205.732 167.35 206.497 166.697 207.281 166.268C208.084 165.82 208.83 165.596 209.521 165.596C210.156 165.596 210.604 165.754 210.865 166.072C211.126 166.389 211.257 166.762 211.257 167.192C211.257 167.416 211.22 167.686 211.145 168.004C211.089 168.302 211.033 168.62 210.977 168.956H211.061C211.77 167.817 212.601 166.968 213.553 166.408C214.524 165.829 215.457 165.54 216.353 165.54C217.249 165.54 217.93 165.792 218.397 166.296C218.882 166.781 219.125 167.378 219.125 168.088C219.125 168.48 219.05 169.002 218.901 169.656C218.77 170.309 218.602 171.009 218.397 171.756C218.192 172.502 217.986 173.24 217.781 173.968C217.576 174.677 217.398 175.312 217.249 175.872C217.118 176.413 217.053 176.796 217.053 177.02C217.053 177.15 217.09 177.272 217.165 177.384C217.24 177.496 217.37 177.552 217.557 177.552C217.874 177.552 218.276 177.384 218.761 177.048C219.246 176.712 219.685 176.301 220.077 175.816C220.32 175.984 220.534 176.17 220.721 176.376C220.086 177.216 219.396 177.916 218.649 178.476C217.921 179.036 217.109 179.316 216.213 179.316C215.522 179.316 215.018 179.148 214.701 178.812C214.384 178.457 214.225 178.018 214.225 177.496C214.225 177.122 214.29 176.628 214.421 176.012C214.57 175.396 214.748 174.724 214.953 173.996C215.158 173.268 215.354 172.549 215.541 171.84C215.746 171.112 215.914 170.449 216.045 169.852C216.194 169.254 216.269 168.788 216.269 168.452C216.269 168.078 216.185 167.77 216.017 167.528C215.849 167.285 215.55 167.164 215.121 167.164C214.58 167.164 213.973 167.397 213.301 167.864C212.629 168.33 211.985 169.04 211.369 169.992C210.772 170.944 210.296 172.166 209.941 173.66L209.885 173.884ZM230.429 175.704H230.289C229.412 177.066 228.535 178.009 227.657 178.532C226.78 179.036 225.977 179.288 225.249 179.288C224.353 179.288 223.56 178.933 222.869 178.224C222.197 177.514 221.861 176.394 221.861 174.864C221.861 173.65 222.085 172.484 222.533 171.364C223 170.244 223.616 169.245 224.381 168.368C225.165 167.49 226.033 166.8 226.985 166.296C227.937 165.792 228.899 165.54 229.869 165.54C230.243 165.54 230.625 165.586 231.017 165.68C231.428 165.754 231.829 165.885 232.221 166.072L233.117 161.704C233.173 161.442 233.22 161.2 233.257 160.976C233.295 160.752 233.313 160.574 233.313 160.444C233.313 160.089 233.145 159.874 232.809 159.8C232.492 159.706 231.885 159.65 230.989 159.632C230.971 159.501 230.952 159.38 230.933 159.268C230.933 159.137 230.943 159.006 230.961 158.876C231.969 158.801 232.949 158.698 233.901 158.568C234.872 158.418 235.703 158.204 236.393 157.924L236.757 158.12C236.571 158.81 236.375 159.566 236.169 160.388C235.983 161.209 235.787 162.133 235.581 163.16L232.977 175.872C232.959 176.002 232.921 176.18 232.865 176.404C232.828 176.609 232.809 176.796 232.809 176.964C232.809 177.374 232.977 177.58 233.313 177.58C233.631 177.58 234.032 177.412 234.517 177.076C235.003 176.74 235.441 176.329 235.833 175.844C236.076 176.012 236.291 176.198 236.477 176.404C235.843 177.244 235.152 177.944 234.405 178.504C233.677 179.064 232.865 179.344 231.969 179.344C231.297 179.344 230.821 179.185 230.541 178.868C230.261 178.532 230.121 178.093 230.121 177.552C230.121 177.29 230.149 177.02 230.205 176.74C230.261 176.46 230.336 176.114 230.429 175.704ZM230.989 172.008L231.801 168.004C231.26 167.537 230.756 167.22 230.289 167.052C229.841 166.884 229.459 166.8 229.141 166.8C228.451 166.8 227.835 167.052 227.293 167.556C226.752 168.06 226.304 168.713 225.949 169.516C225.595 170.3 225.324 171.149 225.137 172.064C224.951 172.978 224.857 173.846 224.857 174.668C224.857 175.732 224.997 176.478 225.277 176.908C225.576 177.318 225.968 177.524 226.453 177.524C227.069 177.524 227.685 177.262 228.301 176.74C228.917 176.217 229.468 175.536 229.953 174.696C230.439 173.856 230.784 172.96 230.989 172.008ZM244.812 172.96H237.7C237.793 172.586 237.877 172.241 237.952 171.924C238.027 171.588 238.12 171.242 238.232 170.888H245.344C245.269 171.242 245.185 171.588 245.092 171.924C245.017 172.241 244.924 172.586 244.812 172.96ZM245.928 179.008C245.928 178.877 245.937 178.728 245.956 178.56C245.974 178.392 246.012 178.242 246.068 178.112C246.87 178.037 247.449 177.962 247.804 177.888C248.177 177.794 248.438 177.617 248.588 177.356C248.737 177.076 248.868 176.618 248.98 175.984L251.556 162.712C251.63 162.376 251.686 162.096 251.724 161.872C251.761 161.629 251.78 161.424 251.78 161.256C251.78 160.826 251.612 160.574 251.276 160.5C250.958 160.406 250.314 160.322 249.344 160.248C249.381 159.949 249.437 159.65 249.512 159.352C250.053 159.352 250.725 159.361 251.528 159.38C252.33 159.398 253.077 159.408 253.768 159.408C254.421 159.408 255.149 159.398 255.952 159.38C256.773 159.361 257.445 159.352 257.968 159.352C257.968 159.65 257.912 159.94 257.8 160.22C256.997 160.276 256.4 160.35 256.008 160.444C255.616 160.537 255.336 160.724 255.168 161.004C255 161.265 254.85 161.722 254.72 162.376L251.724 177.804H255.756C256.782 177.804 257.604 177.654 258.22 177.356C258.836 177.057 259.368 176.6 259.816 175.984C260.264 175.368 260.749 174.584 261.272 173.632C261.626 173.557 261.972 173.557 262.308 173.632C261.897 174.752 261.542 175.778 261.244 176.712C260.964 177.626 260.73 178.382 260.544 178.98C258.789 178.98 257.1 178.98 255.476 178.98C253.87 178.961 252.19 178.952 250.436 178.952C249.633 178.952 248.812 178.961 247.972 178.98C247.132 178.998 246.45 179.008 245.928 179.008ZM266.785 179.288C266.206 179.288 265.656 179.138 265.133 178.84C264.61 178.522 264.19 178.037 263.873 177.384C263.556 176.73 263.397 175.89 263.397 174.864C263.397 173.594 263.64 172.4 264.125 171.28C264.61 170.16 265.245 169.17 266.029 168.312C266.813 167.453 267.672 166.781 268.605 166.296C269.557 165.792 270.49 165.54 271.405 165.54C271.76 165.54 272.161 165.596 272.609 165.708C273.057 165.801 273.524 165.969 274.009 166.212C274.401 166.156 274.802 166.1 275.213 166.044C275.642 165.988 276.081 165.922 276.529 165.848L276.613 165.96C276.389 166.744 276.193 167.49 276.025 168.2C275.857 168.89 275.689 169.6 275.521 170.328L274.233 175.872C274.214 176.002 274.177 176.17 274.121 176.376C274.065 176.581 274.037 176.777 274.037 176.964C274.037 177.132 274.074 177.272 274.149 177.384C274.224 177.496 274.354 177.552 274.541 177.552C274.858 177.552 275.26 177.384 275.745 177.048C276.23 176.712 276.669 176.301 277.061 175.816C277.304 175.984 277.518 176.17 277.705 176.376C277.07 177.216 276.389 177.916 275.661 178.476C274.933 179.036 274.112 179.316 273.197 179.316C272.506 179.316 272.012 179.148 271.713 178.812C271.414 178.457 271.265 178.018 271.265 177.496C271.265 176.992 271.368 176.413 271.573 175.76H271.433C270.742 176.954 269.996 177.841 269.193 178.42C268.409 178.998 267.606 179.288 266.785 179.288ZM273.281 167.976C272.889 167.621 272.478 167.341 272.049 167.136C271.62 166.912 271.181 166.8 270.733 166.8C270.042 166.8 269.426 167.052 268.885 167.556C268.344 168.06 267.886 168.713 267.513 169.516C267.14 170.3 266.86 171.149 266.673 172.064C266.486 172.96 266.393 173.818 266.393 174.64C266.393 175.76 266.542 176.525 266.841 176.936C267.14 177.328 267.494 177.524 267.905 177.524C268.39 177.524 268.922 177.29 269.501 176.824C270.098 176.338 270.677 175.573 271.237 174.528C271.816 173.464 272.31 172.064 272.721 170.328L273.281 167.976ZM283.607 179.316C282.17 179.316 281.04 178.868 280.219 177.972C279.416 177.076 279.015 175.872 279.015 174.36C279.015 173.146 279.258 172.008 279.743 170.944C280.228 169.88 280.872 168.946 281.675 168.144C282.478 167.341 283.364 166.716 284.335 166.268C285.306 165.801 286.267 165.568 287.219 165.568C288.096 165.568 288.824 165.754 289.403 166.128C289.982 166.501 290.271 166.977 290.271 167.556C290.271 167.948 290.14 168.274 289.879 168.536C289.618 168.797 289.272 168.928 288.843 168.928C288.432 168.928 288.012 168.769 287.583 168.452C287.154 168.116 286.892 167.537 286.799 166.716C286.108 166.734 285.464 166.996 284.867 167.5C284.288 168.004 283.784 168.648 283.355 169.432C282.926 170.216 282.59 171.046 282.347 171.924C282.104 172.801 281.983 173.632 281.983 174.416C281.983 175.218 282.16 175.918 282.515 176.516C282.87 177.113 283.532 177.412 284.503 177.412C285.306 177.412 286.043 177.197 286.715 176.768C287.406 176.338 288.003 175.769 288.507 175.06C288.806 175.209 289.03 175.386 289.179 175.592C288.824 176.226 288.386 176.833 287.863 177.412C287.359 177.972 286.752 178.429 286.043 178.784C285.352 179.138 284.54 179.316 283.607 179.316ZM294.66 179.316C293.185 179.316 292.056 179.054 291.272 178.532C290.488 178.009 290.096 177.458 290.096 176.88C290.096 176.562 290.217 176.264 290.46 175.984C290.702 175.704 291.057 175.564 291.524 175.564C291.99 175.564 292.364 175.694 292.644 175.956C292.942 176.217 293.166 176.553 293.316 176.964C293.484 177.374 293.596 177.785 293.652 178.196C293.857 178.252 294.053 178.289 294.24 178.308C294.445 178.326 294.641 178.336 294.828 178.336C295.593 178.336 296.237 178.177 296.76 177.86C297.282 177.524 297.544 177.029 297.544 176.376C297.544 175.797 297.32 175.312 296.872 174.92C296.424 174.509 295.77 174.014 294.912 173.436C294.408 173.081 293.922 172.717 293.456 172.344C292.989 171.952 292.606 171.522 292.308 171.056C292.009 170.589 291.86 170.066 291.86 169.488C291.86 168.89 292.037 168.293 292.392 167.696C292.765 167.08 293.344 166.576 294.128 166.184C294.912 165.773 295.91 165.568 297.124 165.568C298.468 165.568 299.476 165.801 300.148 166.268C300.82 166.734 301.156 167.238 301.156 167.78C301.156 168.06 301.053 168.349 300.848 168.648C300.661 168.946 300.325 169.096 299.84 169.096C299.224 169.096 298.748 168.853 298.412 168.368C298.094 167.864 297.898 167.332 297.824 166.772C297.432 166.678 297.04 166.632 296.648 166.632C295.901 166.632 295.332 166.809 294.94 167.164C294.548 167.5 294.352 167.938 294.352 168.48C294.352 169.058 294.576 169.562 295.024 169.992C295.49 170.402 296.162 170.906 297.04 171.504C297.544 171.84 298.029 172.204 298.496 172.596C298.962 172.969 299.345 173.398 299.644 173.884C299.942 174.35 300.092 174.91 300.092 175.564C300.092 176.348 299.858 177.02 299.392 177.58C298.925 178.14 298.281 178.569 297.46 178.868C296.638 179.166 295.705 179.316 294.66 179.316Z" fill="white"/>
<line x1="1" y1="203.775" x2="301" y2="203.775" stroke="#33CC66" stroke-width="0.787597"/>
<defs>
<linearGradient id="paint0_linear_161_35" x1="147.123" y1="23.4462" x2="140.953" y2="23.315" gradientUnits="userSpaceOnUse">
<stop offset="0.395833" stop-color="white"/>
<stop offset="1" stop-color="#306231"/>
</linearGradient>
</defs>
</svg>
