<svg width="277" height="95" viewBox="0 0 277 95" fill="none" xmlns="http://www.w3.org/2000/svg">
<path d="M1 31.1123C4.60563 15.4021 9.55781 11.4829 25.2093 13.3417C16.5386 27.1664 11.1301 21.4145 1 31.1123Z" fill="#306231" stroke="#306231" stroke-width="0.343394"/>
<path d="M14.4711 45.0099L14.63 44.8119L14.6158 44.5584C13.7755 29.5993 20.0353 22.3216 25.4887 20.7383L25.866 20.6288L25.9506 20.2452C25.9794 20.1145 26.0077 19.9859 26.0356 19.8593C26.3072 18.625 26.5357 17.587 26.7892 16.7053C27.0688 15.7333 27.3641 15.0072 27.7409 14.4623C28.1061 13.9343 28.5582 13.5613 29.1919 13.311C29.8433 13.0537 30.7137 12.9155 31.9239 12.9155H32.5858V12.2535V4.30986V3.62546L31.9018 3.64825L21.2365 4.00373V1.66197H42.1616C42.4115 1.71351 42.7897 1.77364 43.212 1.84078C43.3025 1.85517 43.3951 1.86989 43.4888 1.88491C43.7842 1.93222 44.1002 1.98385 44.4216 2.04024H37.2183H36.5563V2.70221V3.64789H33.8152H33.1377L33.1534 4.32525L33.3426 12.458L33.3579 13.1176L34.0175 13.1045C36.1195 13.0627 37.4577 13.739 38.2539 14.855C39.0764 16.0079 39.4153 17.7591 39.2083 20.0429L39.1573 20.6047L39.704 20.7441C44.1542 21.8784 52.4437 28.8257 52.4437 45.6358V45.8793L52.6014 46.0647C58.7388 53.2797 61.7874 59.8933 62.6162 65.7299C63.4436 71.556 62.0667 76.654 59.2682 80.8746C53.6505 89.3472 42.2542 94.338 31.3551 94.338C20.8183 94.338 10.8621 89.1386 6.39895 80.4532C1.95814 71.8113 2.84875 59.491 14.4711 45.0099Z" stroke="#306231" stroke-width="1.32394"/>
<path d="M34.0042 57.5513H31.7346V20.9537H25.304C25.304 15.3742 26.1551 12.2535 31.7346 12.2535V4.49899H20.8594V1H46.4871C49.6916 1.21561 49.5966 1.93123 49.2296 3.26962C47.9057 2.60769 42.0825 3.22175 37.5032 3.26962V4.49899H34.0042V12.2535C39.4892 12.7264 39.4892 15.2797 39.4892 20.9537H34.0042V57.5513Z" fill="#306231" stroke="#306231" stroke-width="0.343394"/>
<path d="M24.4454 47.6216C20.1184 49.8406 19.7168 54.3359 24.4454 54.3359C29.1739 54.3359 29.0937 50.3384 24.4454 47.6216Z" fill="#33CC66"/>
<path d="M42.6969 55.4707C37.9548 58.0303 39.1979 61.1448 42.6969 61.1448C46.1958 61.1448 47.4782 57.5746 42.6969 55.4707Z" fill="#33CC66"/>
<path d="M39.0087 41.853C36.2449 43.8934 37.212 44.9738 39.0087 44.9738C40.8054 44.9738 41.446 43.8317 39.0087 41.853Z" fill="#33CC66"/>
<path d="M57.4572 61.334C39.4894 68.8994 27.6684 56.4165 11.6743 56.4165C-4.2953 78.0724 17.739 91.4064 32.7629 91.4064C47.7868 91.4064 67.1976 79.1127 57.4572 61.334Z" fill="#33CC66"/>
<path d="M27.6684 19.6297H26.1553C26.1597 16.9385 26.6052 15.9464 28.1412 15.1851C27.7948 16.1431 27.7089 17.2007 27.6684 19.6297Z" fill="url(#paint0_linear_161_10)"/>
<path d="M33.2092 66.7244C29.847 66.7244 27.3924 67.8725 25.813 69.646C24.2405 71.4117 23.5772 73.7508 23.7009 76.0646C23.9476 80.6783 27.3521 85.3542 33.2092 85.3542C39.0662 85.3542 42.4707 80.6783 42.7174 76.0645C42.8412 73.7507 42.1779 71.4117 40.6053 69.6459C39.0259 67.8724 36.5713 66.7244 33.2092 66.7244Z" fill="#306231" stroke="#F1F3F5" stroke-width="0.945674"/>
<path d="M89.8951 46.08C88.9618 46.08 87.9885 46.0533 86.9751 46C85.9885 45.9733 85.1085 45.96 84.3351 45.96C83.9085 45.96 83.3085 45.9733 82.5351 46C81.7618 46 80.9751 46 80.1751 46C79.3751 46.0267 78.7085 46.04 78.1751 46.04C78.1218 45.64 78.1218 45.2133 78.1751 44.76C79.4285 44.6267 80.3218 44.5067 80.8551 44.4C81.3885 44.2667 81.7218 44 81.8551 43.6C81.9885 43.1733 82.0551 42.4933 82.0551 41.56V22.96C82.0551 21.84 81.9885 21.04 81.8551 20.56C81.7218 20.08 81.3751 19.7733 80.8151 19.64C80.2818 19.48 79.4018 19.3467 78.1751 19.24C78.1218 18.84 78.1218 18.4133 78.1751 17.96C78.7351 17.96 79.4018 17.9733 80.1751 18C80.9485 18 81.7085 18.0133 82.4551 18.04C83.2285 18.04 83.8685 18.04 84.3751 18.04C85.2018 18.04 86.1485 18.0267 87.2151 18C88.3085 17.9733 89.1751 17.96 89.8151 17.96C93.0685 17.96 95.4818 18.4933 97.0551 19.56C98.6285 20.6267 99.4151 22.1733 99.4151 24.2C99.4151 27.5867 97.3218 29.88 93.1351 31.08V31.12C94.5751 31.2267 95.8818 31.56 97.0551 32.12C98.2551 32.68 99.2151 33.4667 99.9351 34.48C100.655 35.4933 101.015 36.7467 101.015 38.24C101.015 40.1333 100.442 41.72 99.2952 43C98.1485 44.2533 96.7218 45.1067 95.0151 45.56C94.2685 45.7467 93.4685 45.88 92.6151 45.96C91.7618 46.04 90.8551 46.08 89.8951 46.08ZM88.8151 32.36C88.4951 32.36 88.1218 32.3733 87.6951 32.4C87.2951 32.4 86.8818 32.4267 86.4551 32.48V41.36C86.4551 42.0267 86.4551 42.5867 86.4551 43.04C86.4551 43.4933 86.4685 43.8667 86.4951 44.16C87.6685 44.4 88.7218 44.52 89.6551 44.52C91.7085 44.52 93.2951 44.0133 94.4151 43C95.5618 41.96 96.1351 40.3867 96.1351 38.28C96.1351 36.2267 95.5485 34.7333 94.3751 33.8C93.2018 32.84 91.3485 32.36 88.8151 32.36ZM86.4551 30.72C86.6685 30.7467 86.8551 30.76 87.0151 30.76C87.2018 30.76 87.3751 30.76 87.5351 30.76C90.0951 30.76 91.9085 30.3067 92.9751 29.4C94.0685 28.4667 94.6151 27.0667 94.6151 25.2C94.6151 21.4667 92.6818 19.6 88.8151 19.6C88.4151 19.6 88.0285 19.6267 87.6551 19.68C87.3085 19.7067 86.9085 19.7467 86.4551 19.8V30.72ZM108.324 31.275V42.9C108.324 43.4167 108.341 43.825 108.374 44.125C108.407 44.425 108.499 44.6417 108.649 44.775C108.799 44.9083 109.041 45.0083 109.374 45.075C109.707 45.125 110.182 45.175 110.799 45.225C110.849 45.4917 110.849 45.7583 110.799 46.025C110.466 46.025 110.057 46.0167 109.574 46C109.091 46 108.607 46 108.124 46C107.657 45.9833 107.266 45.975 106.949 45.975C106.632 45.975 106.232 45.9833 105.749 46C105.282 46 104.807 46 104.324 46C103.857 46.0167 103.441 46.025 103.074 46.025C103.024 45.775 103.024 45.5083 103.074 45.225C103.874 45.1417 104.449 45.0667 104.799 45C105.149 44.9167 105.366 44.75 105.449 44.5C105.532 44.25 105.574 43.825 105.574 43.225V31.6C105.574 30.9 105.532 30.4 105.449 30.1C105.366 29.8 105.149 29.6083 104.799 29.525C104.449 29.425 103.874 29.3417 103.074 29.275C103.041 29.025 103.041 28.7583 103.074 28.475C103.424 28.475 103.841 28.4833 104.324 28.5C104.824 28.5 105.316 28.5083 105.799 28.525C106.282 28.525 106.682 28.525 106.999 28.525C107.316 28.525 107.707 28.525 108.174 28.525C108.641 28.5083 109.116 28.5 109.599 28.5C110.082 28.4833 110.482 28.475 110.799 28.475C110.849 28.725 110.849 28.9917 110.799 29.275C110.016 29.3417 109.449 29.4167 109.099 29.5C108.749 29.5833 108.532 29.75 108.449 30C108.366 30.25 108.324 30.675 108.324 31.275ZM130.377 37.15C130.377 38.95 130.01 40.5417 129.277 41.925C128.543 43.3083 127.51 44.4 126.177 45.2C124.843 45.9833 123.268 46.375 121.452 46.375C119.652 46.375 118.11 45.9917 116.827 45.225C115.543 44.4583 114.552 43.4 113.852 42.05C113.168 40.7 112.827 39.1667 112.827 37.45C112.827 35.6667 113.193 34.0833 113.927 32.7C114.66 31.3 115.693 30.2083 117.027 29.425C118.377 28.625 119.952 28.225 121.752 28.225C123.535 28.225 125.068 28.6083 126.352 29.375C127.635 30.1417 128.627 31.2 129.327 32.55C130.027 33.8833 130.377 35.4167 130.377 37.15ZM127.277 37.4C127.277 36.3833 127.177 35.3917 126.977 34.425C126.777 33.4583 126.452 32.5833 126.002 31.8C125.568 31.0167 124.993 30.4 124.277 29.95C123.56 29.4833 122.685 29.25 121.652 29.25C120.602 29.25 119.71 29.4833 118.977 29.95C118.26 30.4167 117.677 31.0333 117.227 31.8C116.793 32.5667 116.468 33.425 116.252 34.375C116.052 35.325 115.952 36.2917 115.952 37.275C115.952 38.2417 116.052 39.2083 116.252 40.175C116.468 41.125 116.802 41.9917 117.252 42.775C117.702 43.5583 118.293 44.1917 119.027 44.675C119.777 45.1417 120.677 45.375 121.727 45.375C122.76 45.375 123.627 45.15 124.327 44.7C125.043 44.25 125.618 43.65 126.052 42.9C126.485 42.1333 126.793 41.275 126.977 40.325C127.177 39.375 127.277 38.4 127.277 37.4ZM156.705 21.64C156.565 22.6433 156.413 23.6817 156.25 24.755C156.11 25.8283 155.981 26.96 155.865 28.15C155.655 28.1733 155.445 28.1967 155.235 28.22C155.048 28.22 154.85 28.22 154.64 28.22C154.616 27.2167 154.476 26.2833 154.22 25.42C153.986 24.5333 153.566 23.8217 152.96 23.285C152.353 22.725 151.455 22.445 150.265 22.445C148.841 22.445 147.628 22.865 146.625 23.705C145.645 24.5217 145.155 25.63 145.155 27.03C145.155 27.8467 145.33 28.535 145.68 29.095C146.053 29.655 146.566 30.1567 147.22 30.6C147.896 31.02 148.678 31.475 149.565 31.965C150.475 32.455 151.35 32.9917 152.19 33.575C153.03 34.1583 153.718 34.8817 154.255 35.745C154.791 36.585 155.06 37.67 155.06 39C155.06 40.4933 154.686 41.8 153.94 42.92C153.193 44.04 152.155 44.915 150.825 45.545C149.495 46.175 147.955 46.49 146.205 46.49C145.271 46.49 144.42 46.4083 143.65 46.245C142.903 46.105 142.168 45.965 141.445 45.825C140.721 45.685 139.94 45.615 139.1 45.615C138.936 45.615 138.773 45.615 138.61 45.615C138.47 45.615 138.341 45.6267 138.225 45.65C138.458 44.67 138.68 43.6083 138.89 42.465C139.123 41.2983 139.356 40.0383 139.59 38.685C139.94 38.615 140.325 38.6033 140.745 38.65C140.721 38.8133 140.71 38.9417 140.71 39.035C140.71 39.1283 140.71 39.1983 140.71 39.245C140.71 41.1117 141.211 42.5583 142.215 43.585C143.241 44.5883 144.606 45.09 146.31 45.09C147.196 45.09 148.048 44.9383 148.865 44.635C149.681 44.3083 150.346 43.8067 150.86 43.13C151.373 42.43 151.63 41.5433 151.63 40.47C151.63 39.5133 151.42 38.72 151 38.09C150.603 37.46 150.031 36.9 149.285 36.41C148.561 35.92 147.71 35.4067 146.73 34.87C145.866 34.38 145.026 33.855 144.21 33.295C143.416 32.735 142.763 32.0583 142.25 31.265C141.736 30.4483 141.48 29.4333 141.48 28.22C141.48 26.7733 141.865 25.525 142.635 24.475C143.405 23.4017 144.478 22.5733 145.855 21.99C147.231 21.4067 148.806 21.115 150.58 21.115C151.863 21.115 152.901 21.22 153.695 21.43C154.488 21.64 155.165 21.745 155.725 21.745C155.865 21.745 156.028 21.7333 156.215 21.71C156.425 21.6867 156.588 21.6633 156.705 21.64ZM175.679 37.15C175.679 38.95 175.313 40.5417 174.579 41.925C173.846 43.3083 172.813 44.4 171.479 45.2C170.146 45.9833 168.571 46.375 166.754 46.375C164.954 46.375 163.413 45.9917 162.129 45.225C160.846 44.4583 159.854 43.4 159.154 42.05C158.471 40.7 158.129 39.1667 158.129 37.45C158.129 35.6667 158.496 34.0833 159.229 32.7C159.963 31.3 160.996 30.2083 162.329 29.425C163.679 28.625 165.254 28.225 167.054 28.225C168.838 28.225 170.371 28.6083 171.654 29.375C172.938 30.1417 173.929 31.2 174.629 32.55C175.329 33.8833 175.679 35.4167 175.679 37.15ZM172.579 37.4C172.579 36.3833 172.479 35.3917 172.279 34.425C172.079 33.4583 171.754 32.5833 171.304 31.8C170.871 31.0167 170.296 30.4 169.579 29.95C168.863 29.4833 167.988 29.25 166.954 29.25C165.904 29.25 165.013 29.4833 164.279 29.95C163.563 30.4167 162.979 31.0333 162.529 31.8C162.096 32.5667 161.771 33.425 161.554 34.375C161.354 35.325 161.254 36.2917 161.254 37.275C161.254 38.2417 161.354 39.2083 161.554 40.175C161.771 41.125 162.104 41.9917 162.554 42.775C163.004 43.5583 163.596 44.1917 164.329 44.675C165.079 45.1417 165.979 45.375 167.029 45.375C168.063 45.375 168.929 45.15 169.629 44.7C170.346 44.25 170.921 43.65 171.354 42.9C171.788 42.1333 172.096 41.275 172.279 40.325C172.479 39.375 172.579 38.4 172.579 37.4ZM175.247 46.025C175.214 45.7583 175.214 45.4917 175.247 45.225C175.714 45.175 176.089 45.1167 176.372 45.05C176.656 44.9833 176.897 44.8667 177.097 44.7C177.297 44.5167 177.489 44.25 177.672 43.9C177.856 43.5333 178.072 43.025 178.322 42.375L183.722 28.525C183.906 28.4583 184.122 28.4083 184.372 28.375C184.639 28.3417 184.864 28.325 185.047 28.325L190.422 42.6C190.656 43.2 190.847 43.675 190.997 44.025C191.147 44.3583 191.314 44.6 191.497 44.75C191.681 44.9 191.914 45.0083 192.197 45.075C192.481 45.125 192.872 45.175 193.372 45.225C193.406 45.4917 193.406 45.7583 193.372 46.025C192.789 46.025 192.189 46.0167 191.572 46C190.956 45.9833 190.339 45.975 189.722 45.975C189.089 45.975 188.447 45.9833 187.797 46C187.164 46.0167 186.531 46.025 185.897 46.025C185.847 45.775 185.847 45.5083 185.897 45.225C186.714 45.1417 187.281 45.0667 187.597 45C187.914 44.9167 188.072 44.7167 188.072 44.4C188.072 44.2667 188.047 44.1167 187.997 43.95C187.947 43.7833 187.881 43.575 187.797 43.325L186.372 39.475H180.747L179.497 42.925C179.381 43.2417 179.289 43.5083 179.222 43.725C179.172 43.925 179.147 44.1083 179.147 44.275C179.147 44.6417 179.314 44.875 179.647 44.975C179.997 45.0583 180.564 45.1417 181.347 45.225C181.381 45.5083 181.381 45.775 181.347 46.025C180.781 46.025 180.222 46.0167 179.672 46C179.122 45.9833 178.564 45.975 177.997 45.975C177.531 45.975 177.081 45.9833 176.647 46C176.214 46.0167 175.747 46.025 175.247 46.025ZM181.122 38.425H185.997L183.547 31.775L181.122 38.425ZM201.14 38.25C200.84 38.25 200.507 38.2333 200.14 38.2C199.773 38.1667 199.357 38.1 198.89 38V42.9C198.89 43.4167 198.907 43.825 198.94 44.125C198.973 44.4083 199.073 44.625 199.24 44.775C199.423 44.925 199.673 45.025 199.99 45.075C200.323 45.125 200.848 45.175 201.565 45.225C201.598 45.4917 201.598 45.7583 201.565 46.025C201.198 46.025 200.757 46.0167 200.24 46C199.74 46 199.24 46 198.74 46C198.257 45.9833 197.848 45.975 197.515 45.975C197.198 45.975 196.798 45.9833 196.315 46C195.848 46 195.373 46 194.89 46C194.423 46.0167 194.007 46.025 193.64 46.025C193.607 45.775 193.607 45.5083 193.64 45.225C194.44 45.1417 195.015 45.0667 195.365 45C195.715 44.9167 195.932 44.75 196.015 44.5C196.098 44.25 196.14 43.825 196.14 43.225V31.6C196.14 30.9 196.098 30.4 196.015 30.1C195.932 29.8 195.715 29.6083 195.365 29.525C195.015 29.425 194.44 29.3417 193.64 29.275C193.607 29.025 193.607 28.7583 193.64 28.475C193.973 28.475 194.39 28.4833 194.89 28.5C195.407 28.5 195.907 28.5083 196.39 28.525C196.873 28.525 197.223 28.525 197.44 28.525C197.757 28.525 198.148 28.525 198.615 28.525C199.098 28.5083 199.573 28.4917 200.04 28.475C200.507 28.4583 200.873 28.45 201.14 28.45C202.19 28.45 203.165 28.6 204.065 28.9C204.965 29.1833 205.69 29.6583 206.24 30.325C206.79 30.9917 207.065 31.9083 207.065 33.075C207.065 34.1917 206.807 35.1333 206.29 35.9C205.773 36.6667 205.065 37.25 204.165 37.65C203.282 38.05 202.273 38.25 201.14 38.25ZM198.89 37C199.107 37.05 199.348 37.1 199.615 37.15C199.882 37.2 200.165 37.225 200.465 37.225C201.565 37.225 202.432 36.8583 203.065 36.125C203.698 35.375 204.015 34.4 204.015 33.2C204.015 32.0333 203.698 31.1167 203.065 30.45C202.432 29.7833 201.482 29.45 200.215 29.45C200.048 29.45 199.84 29.4583 199.59 29.475C199.357 29.4917 199.123 29.5167 198.89 29.55V37ZM100.511 73.3C98.6047 73.3 97.0914 72.78 95.9714 71.74C94.8647 70.7 94.3114 69.1933 94.3114 67.22C94.3114 66.1 94.498 65.0333 94.8714 64.02C95.2447 63.0067 95.7914 62.1067 96.5114 61.32C97.2314 60.5333 98.1047 59.9133 99.1314 59.46C100.171 59.0067 101.358 58.78 102.691 58.78C103.425 58.78 104.051 58.8333 104.571 58.94C105.091 59.0467 105.551 59.16 105.951 59.28C106.365 59.3867 106.758 59.44 107.131 59.44C107.331 59.44 107.511 59.42 107.671 59.38C107.591 59.9533 107.518 60.5467 107.451 61.16C107.385 61.7733 107.311 62.42 107.231 63.1C107.031 63.14 106.865 63.16 106.731 63.16C106.678 63.16 106.638 63.16 106.611 63.16C106.585 63.1467 106.551 63.14 106.511 63.14C106.191 60.78 104.925 59.6 102.711 59.6C101.658 59.6 100.751 59.84 99.9914 60.32C99.2314 60.7867 98.6047 61.4133 98.1114 62.2C97.6314 62.9733 97.278 63.8333 97.0514 64.78C96.8247 65.7267 96.7114 66.68 96.7114 67.64C96.7114 69.16 97.018 70.34 97.6314 71.18C98.2447 72.02 99.258 72.44 100.671 72.44C101.605 72.44 102.511 72.2533 103.391 71.88L103.851 69.5C103.891 69.2733 103.925 69.0733 103.951 68.9C103.991 68.7267 104.011 68.5667 104.011 68.42C104.011 68.1133 103.885 67.9133 103.631 67.82C103.391 67.7267 102.898 67.6533 102.151 67.6C102.178 67.4 102.225 67.1933 102.291 66.98C102.585 66.98 102.945 66.9867 103.371 67C103.811 67 104.245 67.0067 104.671 67.02C105.098 67.02 105.431 67.02 105.671 67.02C106.045 67.02 106.478 67.0133 106.971 67C107.465 66.9867 107.878 66.98 108.211 66.98C108.211 67.0733 108.205 67.1733 108.191 67.28C108.178 67.3733 108.145 67.4733 108.091 67.58C107.678 67.62 107.345 67.6667 107.091 67.72C106.851 67.76 106.665 67.8467 106.531 67.98C106.398 68.1133 106.291 68.3267 106.211 68.62C106.131 68.9133 106.038 69.3267 105.931 69.86C105.838 70.3933 105.751 70.8533 105.671 71.24C105.591 71.6267 105.538 72.0067 105.511 72.38C104.711 72.6333 103.878 72.8467 103.011 73.02C102.158 73.2067 101.325 73.3 100.511 73.3ZM111.422 73H109.422L111.062 65.9C111.155 65.5133 111.202 65.26 111.202 65.14C111.202 64.82 111.082 64.66 110.842 64.66C110.655 64.66 110.409 64.7667 110.102 64.98C109.809 65.18 109.515 65.4333 109.222 65.74C109.129 65.6733 109.042 65.6067 108.962 65.54C108.895 65.4733 108.829 65.4 108.762 65.32C109.295 64.6933 109.849 64.2267 110.422 63.92C110.995 63.6 111.529 63.44 112.022 63.44C112.462 63.44 112.755 63.5467 112.902 63.76C113.049 63.96 113.122 64.2 113.122 64.48C113.122 64.6533 113.095 64.86 113.042 65.1C112.989 65.3267 112.882 65.7133 112.722 66.26L112.082 68.32L112.202 68.34C112.895 66.6733 113.575 65.4333 114.242 64.62C114.909 63.8067 115.629 63.4 116.402 63.4C116.869 63.4 117.195 63.52 117.382 63.76C117.582 64 117.682 64.26 117.682 64.54C117.682 64.8733 117.575 65.1333 117.362 65.32C117.149 65.5067 116.895 65.6 116.602 65.6C116.389 65.6 116.162 65.5467 115.922 65.44C115.682 65.32 115.482 65.1333 115.322 64.88C114.909 65.1467 114.462 65.6333 113.982 66.34C113.502 67.0333 113.035 67.94 112.582 69.06C112.142 70.1667 111.755 71.48 111.422 73ZM119.489 73.22C119.076 73.22 118.683 73.1133 118.309 72.9C117.936 72.6733 117.636 72.3267 117.409 71.86C117.183 71.3933 117.069 70.7933 117.069 70.06C117.069 69.1533 117.243 68.3 117.589 67.5C117.936 66.7 118.389 65.9933 118.949 65.38C119.509 64.7667 120.123 64.2867 120.789 63.94C121.469 63.58 122.136 63.4 122.789 63.4C123.043 63.4 123.329 63.44 123.649 63.52C123.969 63.5867 124.303 63.7067 124.649 63.88C124.929 63.84 125.216 63.8 125.509 63.76C125.816 63.72 126.129 63.6733 126.449 63.62L126.509 63.7C126.349 64.26 126.209 64.7933 126.089 65.3C125.969 65.7933 125.849 66.3 125.729 66.82L124.809 70.78C124.796 70.8733 124.769 70.9933 124.729 71.14C124.689 71.2867 124.669 71.4267 124.669 71.56C124.669 71.68 124.696 71.78 124.749 71.86C124.803 71.94 124.896 71.98 125.029 71.98C125.256 71.98 125.543 71.86 125.889 71.62C126.236 71.38 126.549 71.0867 126.829 70.74C127.003 70.86 127.156 70.9933 127.289 71.14C126.836 71.74 126.349 72.24 125.829 72.64C125.309 73.04 124.723 73.24 124.069 73.24C123.576 73.24 123.223 73.12 123.009 72.88C122.796 72.6267 122.689 72.3133 122.689 71.94C122.689 71.58 122.763 71.1667 122.909 70.7H122.809C122.316 71.5533 121.783 72.1867 121.209 72.6C120.649 73.0133 120.076 73.22 119.489 73.22ZM124.129 65.14C123.849 64.8867 123.556 64.6867 123.249 64.54C122.943 64.38 122.629 64.3 122.309 64.3C121.816 64.3 121.376 64.48 120.989 64.84C120.603 65.2 120.276 65.6667 120.009 66.24C119.743 66.8 119.543 67.4067 119.409 68.06C119.276 68.7 119.209 69.3133 119.209 69.9C119.209 70.7 119.316 71.2467 119.529 71.54C119.743 71.82 119.996 71.96 120.289 71.96C120.636 71.96 121.016 71.7933 121.429 71.46C121.856 71.1133 122.269 70.5667 122.669 69.82C123.083 69.06 123.436 68.06 123.729 66.82L124.129 65.14ZM131.405 69.36L130.565 73H128.565L130.205 65.9C130.298 65.5133 130.345 65.26 130.345 65.14C130.345 64.82 130.225 64.66 129.985 64.66C129.798 64.66 129.552 64.7667 129.245 64.98C128.952 65.18 128.658 65.4333 128.365 65.74C128.272 65.6733 128.185 65.6067 128.105 65.54C128.038 65.4733 127.972 65.4 127.905 65.32C128.438 64.6933 128.985 64.2267 129.545 63.92C130.118 63.6 130.652 63.44 131.145 63.44C131.598 63.44 131.918 63.5533 132.105 63.78C132.292 64.0067 132.385 64.2733 132.385 64.58C132.385 64.74 132.358 64.9333 132.305 65.16C132.265 65.3733 132.225 65.6 132.185 65.84H132.245C132.752 65.0267 133.345 64.42 134.025 64.02C134.718 63.6067 135.385 63.4 136.025 63.4C136.665 63.4 137.152 63.58 137.485 63.94C137.832 64.2867 138.005 64.7133 138.005 65.22C138.005 65.5 137.952 65.8733 137.845 66.34C137.752 66.8067 137.632 67.3067 137.485 67.84C137.338 68.3733 137.192 68.9 137.045 69.42C136.898 69.9267 136.772 70.38 136.665 70.78C136.572 71.1667 136.525 71.44 136.525 71.6C136.525 71.6933 136.552 71.78 136.605 71.86C136.658 71.94 136.752 71.98 136.885 71.98C137.112 71.98 137.398 71.86 137.745 71.62C138.092 71.38 138.405 71.0867 138.685 70.74C138.858 70.86 139.012 70.9933 139.145 71.14C138.692 71.74 138.198 72.24 137.665 72.64C137.145 73.04 136.565 73.24 135.925 73.24C135.432 73.24 135.072 73.12 134.845 72.88C134.618 72.6267 134.505 72.3133 134.505 71.94C134.505 71.6733 134.552 71.32 134.645 70.88C134.752 70.44 134.878 69.96 135.025 69.44C135.172 68.92 135.312 68.4067 135.445 67.9C135.592 67.38 135.712 66.9067 135.805 66.48C135.912 66.0533 135.965 65.72 135.965 65.48C135.965 65.2133 135.905 64.9933 135.785 64.82C135.665 64.6467 135.452 64.56 135.145 64.56C134.758 64.56 134.325 64.7267 133.845 65.06C133.365 65.3933 132.905 65.9 132.465 66.58C132.038 67.26 131.698 68.1333 131.445 69.2L131.405 69.36ZM146.079 70.66H145.979C145.353 71.6333 144.726 72.3067 144.099 72.68C143.473 73.04 142.899 73.22 142.379 73.22C141.739 73.22 141.173 72.9667 140.679 72.46C140.199 71.9533 139.959 71.1533 139.959 70.06C139.959 69.1933 140.119 68.36 140.439 67.56C140.773 66.76 141.213 66.0467 141.759 65.42C142.319 64.7933 142.939 64.3 143.619 63.94C144.299 63.58 144.986 63.4 145.679 63.4C145.946 63.4 146.219 63.4333 146.499 63.5C146.793 63.5533 147.079 63.6467 147.359 63.78L147.999 60.66C148.039 60.4733 148.073 60.3 148.099 60.14C148.126 59.98 148.139 59.8533 148.139 59.76C148.139 59.5067 148.019 59.3533 147.779 59.3C147.553 59.2333 147.119 59.1933 146.479 59.18C146.466 59.0867 146.453 59 146.439 58.92C146.439 58.8267 146.446 58.7333 146.459 58.64C147.179 58.5867 147.879 58.5133 148.559 58.42C149.253 58.3133 149.846 58.16 150.339 57.96L150.599 58.1C150.466 58.5933 150.326 59.1333 150.179 59.72C150.046 60.3067 149.906 60.9667 149.759 61.7L147.899 70.78C147.886 70.8733 147.859 71 147.819 71.16C147.793 71.3067 147.779 71.44 147.779 71.56C147.779 71.8533 147.899 72 148.139 72C148.366 72 148.653 71.88 148.999 71.64C149.346 71.4 149.659 71.1067 149.939 70.76C150.113 70.88 150.266 71.0133 150.399 71.16C149.946 71.76 149.453 72.26 148.919 72.66C148.399 73.06 147.819 73.26 147.179 73.26C146.699 73.26 146.359 73.1467 146.159 72.92C145.959 72.68 145.859 72.3667 145.859 71.98C145.859 71.7933 145.879 71.6 145.919 71.4C145.959 71.2 146.013 70.9533 146.079 70.66ZM146.479 68.02L147.059 65.16C146.673 64.8267 146.313 64.6 145.979 64.48C145.659 64.36 145.386 64.3 145.159 64.3C144.666 64.3 144.226 64.48 143.839 64.84C143.453 65.2 143.133 65.6667 142.879 66.24C142.626 66.8 142.433 67.4067 142.299 68.06C142.166 68.7133 142.099 69.3333 142.099 69.92C142.099 70.68 142.199 71.2133 142.399 71.52C142.613 71.8133 142.893 71.96 143.239 71.96C143.679 71.96 144.119 71.7733 144.559 71.4C144.999 71.0267 145.393 70.54 145.739 69.94C146.086 69.34 146.333 68.7 146.479 68.02ZM156.353 68.7H151.273C151.339 68.4333 151.399 68.1867 151.453 67.96C151.506 67.72 151.573 67.4733 151.653 67.22H156.733C156.679 67.4733 156.619 67.72 156.553 67.96C156.499 68.1867 156.433 68.4333 156.353 68.7ZM157.15 73.02C157.15 72.9267 157.156 72.82 157.17 72.7C157.183 72.58 157.21 72.4733 157.25 72.38C157.823 72.3267 158.236 72.2733 158.49 72.22C158.756 72.1533 158.943 72.0267 159.05 71.84C159.156 71.64 159.25 71.3133 159.33 70.86L161.17 61.38C161.223 61.14 161.263 60.94 161.29 60.78C161.316 60.6067 161.33 60.46 161.33 60.34C161.33 60.0333 161.21 59.8533 160.97 59.8C160.743 59.7333 160.283 59.6733 159.59 59.62C159.616 59.4067 159.656 59.1933 159.71 58.98C160.096 58.98 160.576 58.9867 161.15 59C161.723 59.0133 162.256 59.02 162.75 59.02C163.216 59.02 163.736 59.0133 164.31 59C164.896 58.9867 165.376 58.98 165.75 58.98C165.75 59.1933 165.71 59.4 165.63 59.6C165.056 59.64 164.63 59.6933 164.35 59.76C164.07 59.8267 163.87 59.96 163.75 60.16C163.63 60.3467 163.523 60.6733 163.43 61.14L161.29 72.16H164.17C164.903 72.16 165.49 72.0533 165.93 71.84C166.37 71.6267 166.75 71.3 167.07 70.86C167.39 70.42 167.736 69.86 168.11 69.18C168.363 69.1267 168.61 69.1267 168.85 69.18C168.556 69.98 168.303 70.7133 168.09 71.38C167.89 72.0333 167.723 72.5733 167.59 73C166.336 73 165.13 73 163.97 73C162.823 72.9867 161.623 72.98 160.37 72.98C159.796 72.98 159.21 72.9867 158.61 73C158.01 73.0133 157.523 73.02 157.15 73.02ZM172.048 73.22C171.635 73.22 171.241 73.1133 170.868 72.9C170.495 72.6733 170.195 72.3267 169.968 71.86C169.741 71.3933 169.628 70.7933 169.628 70.06C169.628 69.1533 169.801 68.3 170.148 67.5C170.495 66.7 170.948 65.9933 171.508 65.38C172.068 64.7667 172.681 64.2867 173.348 63.94C174.028 63.58 174.695 63.4 175.348 63.4C175.601 63.4 175.888 63.44 176.208 63.52C176.528 63.5867 176.861 63.7067 177.208 63.88C177.488 63.84 177.775 63.8 178.068 63.76C178.375 63.72 178.688 63.6733 179.008 63.62L179.068 63.7C178.908 64.26 178.768 64.7933 178.648 65.3C178.528 65.7933 178.408 66.3 178.288 66.82L177.368 70.78C177.355 70.8733 177.328 70.9933 177.288 71.14C177.248 71.2867 177.228 71.4267 177.228 71.56C177.228 71.68 177.255 71.78 177.308 71.86C177.361 71.94 177.455 71.98 177.588 71.98C177.815 71.98 178.101 71.86 178.448 71.62C178.795 71.38 179.108 71.0867 179.388 70.74C179.561 70.86 179.715 70.9933 179.848 71.14C179.395 71.74 178.908 72.24 178.388 72.64C177.868 73.04 177.281 73.24 176.628 73.24C176.135 73.24 175.781 73.12 175.568 72.88C175.355 72.6267 175.248 72.3133 175.248 71.94C175.248 71.58 175.321 71.1667 175.468 70.7H175.368C174.875 71.5533 174.341 72.1867 173.768 72.6C173.208 73.0133 172.635 73.22 172.048 73.22ZM176.688 65.14C176.408 64.8867 176.115 64.6867 175.808 64.54C175.501 64.38 175.188 64.3 174.868 64.3C174.375 64.3 173.935 64.48 173.548 64.84C173.161 65.2 172.835 65.6667 172.568 66.24C172.301 66.8 172.101 67.4067 171.968 68.06C171.835 68.7 171.768 69.3133 171.768 69.9C171.768 70.7 171.875 71.2467 172.088 71.54C172.301 71.82 172.555 71.96 172.848 71.96C173.195 71.96 173.575 71.7933 173.988 71.46C174.415 71.1133 174.828 70.5667 175.228 69.82C175.641 69.06 175.995 68.06 176.288 66.82L176.688 65.14ZM184.064 73.24C183.037 73.24 182.23 72.92 181.644 72.28C181.07 71.64 180.784 70.78 180.784 69.7C180.784 68.8333 180.957 68.02 181.304 67.26C181.65 66.5 182.11 65.8333 182.684 65.26C183.257 64.6867 183.89 64.24 184.584 63.92C185.277 63.5867 185.964 63.42 186.644 63.42C187.27 63.42 187.79 63.5533 188.204 63.82C188.617 64.0867 188.824 64.4267 188.824 64.84C188.824 65.12 188.73 65.3533 188.544 65.54C188.357 65.7267 188.11 65.82 187.804 65.82C187.51 65.82 187.21 65.7067 186.904 65.48C186.597 65.24 186.41 64.8267 186.344 64.24C185.85 64.2533 185.39 64.44 184.964 64.8C184.55 65.16 184.19 65.62 183.884 66.18C183.577 66.74 183.337 67.3333 183.164 67.96C182.99 68.5867 182.904 69.18 182.904 69.74C182.904 70.3133 183.03 70.8133 183.284 71.24C183.537 71.6667 184.01 71.88 184.704 71.88C185.277 71.88 185.804 71.7267 186.284 71.42C186.777 71.1133 187.204 70.7067 187.564 70.2C187.777 70.3067 187.937 70.4333 188.044 70.58C187.79 71.0333 187.477 71.4667 187.104 71.88C186.744 72.28 186.31 72.6067 185.804 72.86C185.31 73.1133 184.73 73.24 184.064 73.24ZM191.958 73.24C190.905 73.24 190.098 73.0533 189.538 72.68C188.978 72.3067 188.698 71.9133 188.698 71.5C188.698 71.2733 188.785 71.06 188.958 70.86C189.132 70.66 189.385 70.56 189.718 70.56C190.052 70.56 190.318 70.6533 190.518 70.84C190.732 71.0267 190.892 71.2667 190.998 71.56C191.118 71.8533 191.198 72.1467 191.238 72.44C191.385 72.48 191.525 72.5067 191.658 72.52C191.805 72.5333 191.945 72.54 192.078 72.54C192.625 72.54 193.085 72.4267 193.458 72.2C193.832 71.96 194.018 71.6067 194.018 71.14C194.018 70.7267 193.858 70.38 193.538 70.1C193.218 69.8067 192.752 69.4533 192.138 69.04C191.778 68.7867 191.432 68.5267 191.098 68.26C190.765 67.98 190.492 67.6733 190.278 67.34C190.065 67.0067 189.958 66.6333 189.958 66.22C189.958 65.7933 190.085 65.3667 190.338 64.94C190.605 64.5 191.018 64.14 191.578 63.86C192.138 63.5667 192.852 63.42 193.718 63.42C194.678 63.42 195.398 63.5867 195.878 63.92C196.358 64.2533 196.598 64.6133 196.598 65C196.598 65.2 196.525 65.4067 196.378 65.62C196.245 65.8333 196.005 65.94 195.658 65.94C195.218 65.94 194.878 65.7667 194.638 65.42C194.412 65.06 194.272 64.68 194.218 64.28C193.938 64.2133 193.658 64.18 193.378 64.18C192.845 64.18 192.438 64.3067 192.158 64.56C191.878 64.8 191.738 65.1133 191.738 65.5C191.738 65.9133 191.898 66.2733 192.218 66.58C192.552 66.8733 193.032 67.2333 193.658 67.66C194.018 67.9 194.365 68.16 194.698 68.44C195.032 68.7067 195.305 69.0133 195.518 69.36C195.732 69.6933 195.838 70.0933 195.838 70.56C195.838 71.12 195.672 71.6 195.338 72C195.005 72.4 194.545 72.7067 193.958 72.92C193.372 73.1333 192.705 73.24 191.958 73.24Z" fill="#306231"/>
<line x1="70.0166" y1="86.25" x2="220.017" y2="86.25" stroke="#33CC66" stroke-width="1.5"/>
<defs>
<linearGradient id="paint0_linear_161_10" x1="29.4653" y1="17.171" x2="25.0206" y2="17.0764" gradientUnits="userSpaceOnUse">
<stop offset="0.395833" stop-color="white"/>
<stop offset="1" stop-color="#306231"/>
</linearGradient>
</defs>
</svg>
